<?xml version="1.0" standalone="no"?>
<!DOCTYPE svg PUBLIC "-//W3C//DTD SVG 20010904//EN"
 "http://www.w3.org/TR/2001/REC-SVG-20010904/DTD/svg10.dtd">
<svg version="1.0" xmlns="http://www.w3.org/2000/svg"
 width="256.000000pt" height="256.000000pt" viewBox="0 0 256.000000 256.000000"
 preserveAspectRatio="xMidYMid meet">
<metadata>
Created by potrace 1.11, written by Peter Selinger 2001-2013
</metadata>
<g transform="translate(0.000000,256.000000) scale(0.100000,-0.100000)"
fill="#000000" stroke="none">
<path d="M1700 1955 c-41 -7 -223 -34 -405 -60 -181 -26 -340 -54 -352 -62
l-23 -13 0 -415 0 -415 -53 0 c-108 0 -211 -50 -247 -120 -52 -101 9 -205 146
-246 130 -39 284 11 336 109 23 41 23 47 26 463 l3 422 32 6 c18 3 113 17 212
31 99 14 192 28 208 31 l27 6 0 -286 0 -286 -53 0 c-108 0 -211 -50 -247 -120
-52 -101 9 -205 146 -246 130 -39 284 11 336 109 23 42 23 43 26 560 3 523 1
549 -32 546 -6 -1 -45 -7 -86 -14z"/>
</g>
</svg>
