<svg version="1" xmlns="http://www.w3.org/2000/svg" width="341.333" height="341.333" viewBox="0 0 256.000000 256.000000"><path d="M170 60.5c-4.1.7-22.3 3.4-40.5 6-18.1 2.6-34 5.4-35.2 6.2L92 74v83h-5.3c-10.8 0-21.1 5-24.7 12-5.2 10.1.9 20.5 14.6 24.6 13 3.9 28.4-1.1 33.6-10.9 2.3-4.1 2.3-4.7 2.6-46.3l.3-42.2 3.2-.6c1.8-.3 11.3-1.7 21.2-3.1 9.9-1.4 19.2-2.8 20.8-3.1l2.7-.6V144h-5.3c-10.8 0-21.1 5-24.7 12-5.2 10.1.9 20.5 14.6 24.6 13 3.9 28.4-1.1 33.6-10.9 2.3-4.2 2.3-4.3 2.6-56 .3-52.3.1-54.9-3.2-54.6-.6.1-4.5.7-8.6 1.4z"/></svg>